<?xml version="1.0" standalone="no"?><!DOCTYPE svg PUBLIC "-//W3C//DTD SVG 1.1//EN" "http://www.w3.org/Graphics/SVG/1.1/DTD/svg11.dtd"><svg t="1644301538034" class="icon" viewBox="0 0 1024 1024" version="1.1" xmlns="http://www.w3.org/2000/svg" p-id="2215" xmlns:xlink="http://www.w3.org/1999/xlink" width="200" height="200"><defs><style type="text/css"></style></defs><path d="M 761.27 215.948 l -182.074 272.82 l 143.474 0 l 0 60.2854 L 555.531 549.053 l 0 83.0984 l 167.14 0 l 0 61.0946 L 555.531 693.246 l 0 121.022 l -85.974 0 l 0 -121.022 l -173.436 0 L 296.12 632.152 l 173.436 0 l 0 -83.0984 l -173.436 0 l 0 -60.2854 l 147.972 0 L 263.727 215.948 l 96.9523 0 c 84.3122 135.512 135.375 221.486 153.506 257.792 l 1.80264 0 c 6.16293 -14.9377 22.896 -45.1238 50.4775 -90.5221 l 103.206 -167.273 L 761.27 215.945 Z" p-id="2216"></path><path d="M 825.605 202.004 c -80.1687 -80.082 -190.845 -129.664 -313.038 -129.664 c -122.283 0 -233.003 49.5816 -313.085 129.664 c -80.1253 80.1253 -129.703 190.849 -129.703 313.085 c 0 122.283 49.578 232.956 129.703 313.038 c 80.082 80.1687 190.802 129.75 313.085 129.75 c 122.193 0 232.869 -49.5816 313.038 -129.75 c 80.1723 -80.082 129.664 -190.758 129.664 -313.038 C 955.269 392.852 905.777 282.129 825.605 202.004 M 512.567 28.7013 c 134.251 0 255.902 54.4368 343.903 142.481 c 87.9969 88.0475 142.528 209.655 142.528 343.903 c 0 134.342 -54.5307 255.902 -142.528 343.993 c -88.0006 87.9969 -209.652 142.437 -343.903 142.437 c -134.342 0 -255.902 -54.4368 -343.946 -142.437 c -88.0006 -88.0909 -142.481 -209.652 -142.481 -343.993 c 0 -134.251 54.4838 -255.859 142.481 -343.903 C 256.665 83.1417 378.225 28.7013 512.567 28.7013 Z" p-id="2217"></path></svg>